<mxfile host="65bd71144e">
    <diagram id="UXhh5-VpMZ9AY803haZ7" name="Page-1">
        <mxGraphModel dx="2221" dy="622" grid="1" gridSize="10" guides="1" tooltips="1" connect="1" arrows="1" fold="1" page="1" pageScale="1" pageWidth="850" pageHeight="1100" math="0" shadow="0">
            <root>
                <mxCell id="0"/>
                <mxCell id="1" parent="0"/>
                <mxCell id="2" value="Cliente" style="swimlane;fontStyle=0;align=center;verticalAlign=top;childLayout=stackLayout;horizontal=1;startSize=55;horizontalStack=0;resizeParent=1;resizeParentMax=0;resizeLast=0;collapsible=0;marginBottom=0;html=1;" vertex="1" parent="1">
                    <mxGeometry x="510" y="90" width="290" height="450" as="geometry"/>
                </mxCell>
                <mxCell id="3" value="attributes" style="text;html=1;strokeColor=none;fillColor=none;align=center;verticalAlign=middle;spacingLeft=4;spacingRight=4;overflow=hidden;rotatable=0;points=[[0,0.5],[1,0.5]];portConstraint=eastwest;" vertex="1" parent="2">
                    <mxGeometry y="55" width="290" height="20" as="geometry"/>
                </mxCell>
                <mxCell id="6" value="&lt;p dir=&quot;ltr&quot; class=&quot;selectable-text copyable-text iq0m558w g0rxnol2&quot;&gt;&lt;span class=&quot;selectable-text copyable-text&quot;&gt;-CUI: int&lt;/span&gt;&lt;/p&gt;&lt;p dir=&quot;ltr&quot; class=&quot;selectable-text copyable-text iq0m558w g0rxnol2&quot;&gt;&lt;span class=&quot;selectable-text copyable-text&quot;&gt;-visita_sHotel: int&lt;/span&gt;&lt;/p&gt;&lt;p dir=&quot;ltr&quot; class=&quot;selectable-text copyable-text iq0m558w g0rxnol2&quot;&gt;&lt;span class=&quot;selectable-text copyable-text&quot;&gt;-tipo_de_cuarto: ArrayList&amp;lt;String&amp;gt;&lt;/span&gt;&lt;/p&gt;&lt;p dir=&quot;ltr&quot; class=&quot;selectable-text copyable-text iq0m558w g0rxnol2&quot;&gt;&lt;span class=&quot;selectable-text copyable-text&quot;&gt;-acompanantes: int&lt;/span&gt;&lt;/p&gt;&lt;p dir=&quot;ltr&quot; class=&quot;selectable-text copyable-text iq0m558w g0rxnol2&quot;&gt;&lt;span class=&quot;selectable-text copyable-text&quot;&gt;-canBuy: boolean&lt;/span&gt;&lt;/p&gt;" style="text;html=1;strokeColor=none;fillColor=none;align=left;verticalAlign=middle;spacingLeft=4;spacingRight=4;overflow=hidden;rotatable=0;points=[[0,0.5],[1,0.5]];portConstraint=eastwest;" vertex="1" parent="2">
                    <mxGeometry y="75" width="290" height="165" as="geometry"/>
                </mxCell>
                <mxCell id="7" value="" style="line;strokeWidth=1;fillColor=none;align=left;verticalAlign=middle;spacingTop=-1;spacingLeft=3;spacingRight=3;rotatable=0;labelPosition=right;points=[];portConstraint=eastwest;" vertex="1" parent="2">
                    <mxGeometry y="240" width="290" height="8" as="geometry"/>
                </mxCell>
                <mxCell id="8" value="operations" style="text;html=1;strokeColor=none;fillColor=none;align=center;verticalAlign=middle;spacingLeft=4;spacingRight=4;overflow=hidden;rotatable=0;points=[[0,0.5],[1,0.5]];portConstraint=eastwest;" vertex="1" parent="2">
                    <mxGeometry y="248" width="290" height="20" as="geometry"/>
                </mxCell>
                <mxCell id="9" value="&lt;div&gt;+ingresarData(): void&lt;/div&gt;&lt;div&gt;+getNombre(): String&lt;/div&gt;&lt;div&gt;+getCUI(): int&lt;/div&gt;&lt;div&gt;+getVisita_sHotel(): int&lt;/div&gt;&lt;div&gt;+getTipo_de_cuarto(): ArrayList&amp;lt;String&amp;gt;&lt;/div&gt;&lt;div&gt;+getAcompanantes(): int&lt;/div&gt;&lt;div&gt;+setcanBuy(boolean canBuy): void&lt;/div&gt;&lt;div&gt;+getcanBuy(): boolean&lt;/div&gt;" style="text;html=1;strokeColor=none;fillColor=none;align=left;verticalAlign=middle;spacingLeft=4;spacingRight=4;overflow=hidden;rotatable=0;points=[[0,0.5],[1,0.5]];portConstraint=eastwest;" vertex="1" parent="2">
                    <mxGeometry y="268" width="290" height="182" as="geometry"/>
                </mxCell>
                <mxCell id="12" value="DriverUI" style="swimlane;fontStyle=0;align=center;verticalAlign=top;childLayout=stackLayout;horizontal=1;startSize=55;horizontalStack=0;resizeParent=1;resizeParentMax=0;resizeLast=0;collapsible=0;marginBottom=0;html=1;" vertex="1" parent="1">
                    <mxGeometry x="150" y="120" width="250" height="350" as="geometry"/>
                </mxCell>
                <mxCell id="13" value="attributes" style="text;html=1;strokeColor=none;fillColor=none;align=center;verticalAlign=middle;spacingLeft=4;spacingRight=4;overflow=hidden;rotatable=0;points=[[0,0.5],[1,0.5]];portConstraint=eastwest;" vertex="1" parent="12">
                    <mxGeometry y="55" width="250" height="20" as="geometry"/>
                </mxCell>
                <mxCell id="16" value="&lt;div&gt;-contadorClientes: int&lt;/div&gt;&lt;div&gt;-clientes: ArrayList&amp;lt;Cliente&amp;gt;&lt;/div&gt;&lt;div&gt;-continueProgram: boolean&lt;/div&gt;&lt;div&gt;-continueEmployee: boolean&lt;/div&gt;" style="text;html=1;strokeColor=none;fillColor=none;align=left;verticalAlign=middle;spacingLeft=4;spacingRight=4;overflow=hidden;rotatable=0;points=[[0,0.5],[1,0.5]];portConstraint=eastwest;" vertex="1" parent="12">
                    <mxGeometry y="75" width="250" height="125" as="geometry"/>
                </mxCell>
                <mxCell id="17" value="" style="line;strokeWidth=1;fillColor=none;align=left;verticalAlign=middle;spacingTop=-1;spacingLeft=3;spacingRight=3;rotatable=0;labelPosition=right;points=[];portConstraint=eastwest;" vertex="1" parent="12">
                    <mxGeometry y="200" width="250" height="8" as="geometry"/>
                </mxCell>
                <mxCell id="18" value="operations" style="text;html=1;strokeColor=none;fillColor=none;align=center;verticalAlign=middle;spacingLeft=4;spacingRight=4;overflow=hidden;rotatable=0;points=[[0,0.5],[1,0.5]];portConstraint=eastwest;" vertex="1" parent="12">
                    <mxGeometry y="208" width="250" height="20" as="geometry"/>
                </mxCell>
                <mxCell id="19" value="&lt;div&gt;+main(String[] args): static void&lt;/div&gt;&lt;div&gt;(Otros mÃ©todos para interactuar con el usuario)&lt;/div&gt;" style="text;html=1;strokeColor=none;fillColor=none;align=left;verticalAlign=middle;spacingLeft=4;spacingRight=4;overflow=hidden;rotatable=0;points=[[0,0.5],[1,0.5]];portConstraint=eastwest;" vertex="1" parent="12">
                    <mxGeometry y="228" width="250" height="122" as="geometry"/>
                </mxCell>
                <mxCell id="45" style="edgeStyle=none;html=1;entryX=-0.015;entryY=0.679;entryDx=0;entryDy=0;entryPerimeter=0;" edge="1" parent="1" source="20" target="16">
                    <mxGeometry relative="1" as="geometry"/>
                </mxCell>
                <mxCell id="20" value="Empleado" style="swimlane;fontStyle=0;align=center;verticalAlign=top;childLayout=stackLayout;horizontal=1;startSize=55;horizontalStack=0;resizeParent=1;resizeParentMax=0;resizeLast=0;collapsible=0;marginBottom=0;html=1;" vertex="1" parent="1">
                    <mxGeometry x="-320" y="130" width="290" height="310" as="geometry"/>
                </mxCell>
                <mxCell id="21" value="attributes" style="text;html=1;strokeColor=none;fillColor=none;align=center;verticalAlign=middle;spacingLeft=4;spacingRight=4;overflow=hidden;rotatable=0;points=[[0,0.5],[1,0.5]];portConstraint=eastwest;" vertex="1" parent="20">
                    <mxGeometry y="55" width="290" height="20" as="geometry"/>
                </mxCell>
                <mxCell id="24" value="-key: String" style="text;html=1;strokeColor=none;fillColor=none;align=left;verticalAlign=middle;spacingLeft=4;spacingRight=4;overflow=hidden;rotatable=0;points=[[0,0.5],[1,0.5]];portConstraint=eastwest;" vertex="1" parent="20">
                    <mxGeometry y="75" width="290" height="20" as="geometry"/>
                </mxCell>
                <mxCell id="25" value="" style="line;strokeWidth=1;fillColor=none;align=left;verticalAlign=middle;spacingTop=-1;spacingLeft=3;spacingRight=3;rotatable=0;labelPosition=right;points=[];portConstraint=eastwest;" vertex="1" parent="20">
                    <mxGeometry y="95" width="290" height="8" as="geometry"/>
                </mxCell>
                <mxCell id="26" value="operations" style="text;html=1;strokeColor=none;fillColor=none;align=center;verticalAlign=middle;spacingLeft=4;spacingRight=4;overflow=hidden;rotatable=0;points=[[0,0.5],[1,0.5]];portConstraint=eastwest;" vertex="1" parent="20">
                    <mxGeometry y="103" width="290" height="20" as="geometry"/>
                </mxCell>
                <mxCell id="27" value="+validarCliente(int visitas_Hotel, String tipo_de_cuarto): boolean&#10;+password(String password): boolean&#10;+accederClientes(ArrayList&lt;Cliente&gt; clientList): void" style="text;html=1;strokeColor=none;fillColor=none;align=left;verticalAlign=middle;spacingLeft=4;spacingRight=4;overflow=hidden;rotatable=0;points=[[0,0.5],[1,0.5]];portConstraint=eastwest;" vertex="1" parent="20">
                    <mxGeometry y="123" width="290" height="187" as="geometry"/>
                </mxCell>
                <mxCell id="47" style="edgeStyle=none;html=1;entryX=0.487;entryY=1.051;entryDx=0;entryDy=0;entryPerimeter=0;" edge="1" parent="1" source="37" target="19">
                    <mxGeometry relative="1" as="geometry"/>
                </mxCell>
                <mxCell id="37" value="Habitaciones" style="swimlane;fontStyle=0;align=center;verticalAlign=top;childLayout=stackLayout;horizontal=1;startSize=55;horizontalStack=0;resizeParent=1;resizeParentMax=0;resizeLast=0;collapsible=0;marginBottom=0;html=1;" vertex="1" parent="1">
                    <mxGeometry x="135" y="540" width="280" height="470" as="geometry"/>
                </mxCell>
                <mxCell id="38" value="attributes" style="text;html=1;strokeColor=none;fillColor=none;align=center;verticalAlign=middle;spacingLeft=4;spacingRight=4;overflow=hidden;rotatable=0;points=[[0,0.5],[1,0.5]];portConstraint=eastwest;" vertex="1" parent="37">
                    <mxGeometry y="55" width="280" height="20" as="geometry"/>
                </mxCell>
                <mxCell id="41" value="-precios: int[]&#10;-max_personas: int[]&#10;-habitacionesR: ArrayList&lt;Integer&gt;&#10;-habitacionesF: ArrayList&lt;Integer&gt;&#10;-habitacionesV: ArrayList&lt;Integer&gt;&#10;-habitaciones: int[]" style="text;html=1;strokeColor=none;fillColor=none;align=left;verticalAlign=middle;spacingLeft=4;spacingRight=4;overflow=hidden;rotatable=0;points=[[0,0.5],[1,0.5]];portConstraint=eastwest;" vertex="1" parent="37">
                    <mxGeometry y="75" width="280" height="185" as="geometry"/>
                </mxCell>
                <mxCell id="42" value="" style="line;strokeWidth=1;fillColor=none;align=left;verticalAlign=middle;spacingTop=-1;spacingLeft=3;spacingRight=3;rotatable=0;labelPosition=right;points=[];portConstraint=eastwest;" vertex="1" parent="37">
                    <mxGeometry y="260" width="280" height="8" as="geometry"/>
                </mxCell>
                <mxCell id="43" value="operations" style="text;html=1;strokeColor=none;fillColor=none;align=center;verticalAlign=middle;spacingLeft=4;spacingRight=4;overflow=hidden;rotatable=0;points=[[0,0.5],[1,0.5]];portConstraint=eastwest;" vertex="1" parent="37">
                    <mxGeometry y="268" width="280" height="20" as="geometry"/>
                </mxCell>
                <mxCell id="44" value="+getHabitacionesRegulares(): int&#10;+getHabitacionesFrecuentes(): int&#10;+getHabitacionesVIP(): int&#10;+asignarHabitacion(int cantidad_visitas, int acompanantes): ArrayList&lt;String&gt;&#10;+nuevaReserva(int option_room, int acompanantes, ArrayList&lt;String&gt; tipo_de_cuarto, Cliente cliente): void&#10;+verHabitaciones(): void" style="text;html=1;strokeColor=none;fillColor=none;align=left;verticalAlign=middle;spacingLeft=4;spacingRight=4;overflow=hidden;rotatable=0;points=[[0,0.5],[1,0.5]];portConstraint=eastwest;" vertex="1" parent="37">
                    <mxGeometry y="288" width="280" height="182" as="geometry"/>
                </mxCell>
                <mxCell id="46" style="edgeStyle=none;html=1;entryX=1.018;entryY=0.388;entryDx=0;entryDy=0;entryPerimeter=0;" edge="1" parent="1" source="6" target="16">
                    <mxGeometry relative="1" as="geometry"/>
                </mxCell>
                <mxCell id="48" style="edgeStyle=none;html=1;entryX=0.533;entryY=1.049;entryDx=0;entryDy=0;entryPerimeter=0;" edge="1" parent="1" source="41" target="9">
                    <mxGeometry relative="1" as="geometry">
                        <Array as="points">
                            <mxPoint x="665" y="710"/>
                        </Array>
                    </mxGeometry>
                </mxCell>
            </root>
        </mxGraphModel>
    </diagram>
</mxfile>